<svg xmlns="http://www.w3.org/2000/svg" xml:space="preserve" id="_x32_" width="800" height="800" version="1.1" viewBox="0 0 512 512"><style>.st0{fill:#000}</style><path d="m489.844 249.438-54.703-24.844a23.275 23.275 0 0 1-8.344-6.406l-72.469-99.328-.234-.328a37.825 37.825 0 0 0-29.25-13.844h-265.5c-17.047 0-31.969 11.406-36.469 27.844l-.047.203-21.547 89.828A37.745 37.745 0 0 0 0 232.281v106.813c0 20.844 16.906 37.766 37.781 37.766h14.922a7.222 7.222 0 0 0 5.531-2.578 7.26 7.26 0 0 0 1.547-5.922c-.656-3.516-1.031-7.078-1.031-10.672.016-16.219 6.594-30.859 17.234-41.531 10.672-10.656 25.313-17.219 41.516-17.219 16.219 0 30.875 6.563 41.531 17.219 10.656 10.672 17.219 25.313 17.219 41.531 0 3.594-.375 7.156-1.016 10.672a7.205 7.205 0 0 0 1.547 5.922c1.344 1.625 3.391 2.578 5.531 2.578h142.984a7.246 7.246 0 0 0 5.531-2.578 7.318 7.318 0 0 0 1.547-5.922c-.656-3.516-1.031-7.078-1.031-10.672 0-16.219 6.578-30.859 17.234-41.531 10.656-10.656 25.297-17.219 41.516-17.219 16.203 0 30.859 6.563 41.531 17.219 10.656 10.672 17.219 25.313 17.234 41.531 0 3.594-.391 7.156-1.031 10.672a7.205 7.205 0 0 0 1.547 5.922c1.344 1.625 3.391 2.578 5.531 2.578h19.313c20.875 0 37.781-16.922 37.781-37.766v-55.25c.001-14.813-8.655-28.25-22.155-34.406zM44.625 362.469h-6.844c-6.469 0-12.281-2.594-16.531-6.844a23.223 23.223 0 0 1-6.203-11.156h30.578c-.781 4.313-1.25 8.719-1.25 13.219 0 1.625.125 3.218.25 4.781zm1.75-21.578H14.469c-.031-.609-.094-1.188-.094-1.797v-19.781h41a72.716 72.716 0 0 0-9 21.578zm270.813 21.578H190.406c.125-1.594.25-3.156.25-4.781 0-4.5-.469-8.906-1.266-13.219h128.828c-.797 4.313-1.266 8.719-1.266 13.219.001 1.625.142 3.187.236 4.781zm1.781-21.578H188.625a72.66 72.66 0 0 0-8.969-21.578h148.281a73.497 73.497 0 0 0-8.968 21.578zm-304.594-59.36v-49.25c0-2.063.281-4.156.844-6.156l.063-.219L33 151.969h23.703c3.094 0 5.609-2.5 5.609-5.594v-27.313h214.656c0 .094-.031.188-.031.281v27.031a5.598 5.598 0 0 0 5.594 5.594h74.188a5.515 5.515 0 0 0 3.203-1.031l55.422 75.969.25.313a37.696 37.696 0 0 0 13.594 10.469l54.703 24.875c7.656 3.469 12.734 10.75 13.547 18.969H14.375zm476.375 74.094c-4.25 4.25-10.063 6.844-16.531 6.844H463c.125-1.594.25-3.156.25-4.781-.016-4.5-.469-8.906-1.266-13.219h34.969a23.223 23.223 0 0 1-6.203 11.156zm6.875-16.531c0 .609-.063 1.188-.094 1.797h-36.313a73.082 73.082 0 0 0-8.969-21.578h45.375v19.781z" class="st0"/><path d="M117.5 308.031c-27.406 0-49.625 22.234-49.625 49.656 0 27.406 22.219 49.625 49.625 49.625 27.422 0 49.656-22.219 49.656-49.625 0-27.421-22.234-49.656-49.656-49.656zm0 69.969c-11.219 0-20.328-9.094-20.328-20.313 0-11.25 9.109-20.344 20.328-20.344 11.234 0 20.344 9.094 20.344 20.344 0 11.219-9.11 20.313-20.344 20.313zM390.094 308.031c-27.406 0-49.625 22.234-49.625 49.656 0 27.406 22.219 49.625 49.625 49.625s49.641-22.219 49.641-49.625c-.001-27.421-22.235-49.656-49.641-49.656zm0 69.969c-11.219 0-20.328-9.094-20.328-20.313 0-11.25 9.109-20.344 20.328-20.344 11.234 0 20.344 9.094 20.344 20.344 0 11.219-9.11 20.313-20.344 20.313zM357.891 177.813v.031a8.658 8.658 0 0 0-7.031-3.625h-66.61a8.69 8.69 0 0 0-8.688 8.688v65.359a8.69 8.69 0 0 0 8.688 8.688h113.891c3.266 0 6.266-1.828 7.734-4.734a8.495 8.495 0 0 0 .969-3.953 8.71 8.71 0 0 0-1.656-5.109l-47.297-65.345zm41.593 71.125a1.52 1.52 0 0 1-1.344.828H284.25a1.51 1.51 0 0 1-1.5-1.5v-65.359c0-.813.688-1.484 1.5-1.484h66.609c.484 0 .938.234 1.203.609v.016l47.313 65.328.266.891-.157.671zM167.563 157.438h-28.782v29.671h-29.656v28.782h29.656v29.672h28.782v-29.672h29.671v-28.782h-29.671z" class="st0"/></svg>