<svg xmlns="http://www.w3.org/2000/svg" xml:space="preserve" width="800" height="800" viewBox="0 0 256 256"><path d="m220.7 173.4-37.4-5.7c-6.2-1-12.6 1.2-16.9 5.7l-14.9 15.5c-1.1-.8-2.2-1.4-3.2-1.7l-5.7-28.1c-1-5.4-4.6-10.5-12.6-11.9l-14.7-2.6 1.2-6.7c.5-2.6-.7-4.3-3.1-4.8l-17.1-3c-2.4-.4-4.1.8-4.6 3.4l-1.2 6.7-14.9-2.6c-7.9-1.4-13 2.2-15.9 6.9l-15 24.4c-4.2-.2-12.2 3.3-13.8 12.2L25 214.6l10.1 1.8-1.9 10.6c-2.3 13.2 16.7 16.3 19 3.3l1.9-10.6 34.2 6 34.2 6-1.9 10.6c-2.3 13 16.7 16.6 19 3.3l1.9-10.6 10.1 1.8 2.5-14.4 55.9 9.5 10.7-58.5zm-47.5 6.5c2.2-2.3 5.5-3.4 8.7-2.9l27.8 4.3-4.1 23-48.5-7.6 16.1-16.8zM58.7 190.2c-.9 5.1-5.4 8.2-10.2 7.4-4.8-.8-8-5.4-7.1-10.4.8-4.8 5.4-8.2 10.2-7.4 4.8.8 7.9 5.3 7.1 10.4zm-3.2-19.9 11.3-18.9c1.5-2.7 3.3-4.6 6.7-4l54.9 9.7c3.4.6 4.4 3 4.9 6.1l4.1 21.6-81.9-14.5zm89.8 35.1c-.9 5.1-5.4 8.2-10.2 7.4-4.8-.8-8-5.4-7.1-10.4.8-4.8 5.4-8.2 10.2-7.4 4.8.9 8 5.4 7.1 10.4zM85.2 56.9c-.3-6.3-3.6-12.1-8.9-15.5L44.6 20.9l-31 50.9 55.1 34.3 17.7-22.5-1.2-26.7zM47.6 34l23.6 15.3c2.7 1.8 4.4 4.7 4.6 8l.9 23.2L35.4 54l12.2-20zm-37.3 85.9 20.5 4.3-23.2 24.5L2 131l8.3-11.1zm204.4 18.7 34-10.9L254 148l-26.4 1.4-12.9-10.8zM116.4 4.4 109.3 2l-23.6 9.4 19 21.4 11.7-28.4zm2.4 25.1v20.2L140.9 37l-22.1-7.5zm126.8 68.4-7.7-16-10.2-21-5.6-6.4 8.4-4.1c2.4-1.2 3.4-4 2.2-6.4-1.2-2.4-4-3.4-6.4-2.2L215.5 47l-12.4-14c-3.8-4.2-10-5.5-15.1-3l-49.3 23.8c-5.1 2.5-8 8.1-7 13.7l3.2 18.4-10.1 4.9c-2.4 1.2-3.4 4-2.2 6.4 1.2 2.4 4 3.4 6.4 2.2l7.6-3.7 1.5 8.4 10.2 21 7.7 16c1.2 2.4 4.1 3.4 6.5 2.3l5.9-2.8c2.4-1.2 3.4-4.1 2.3-6.5l-4.9-10.2L226 94.8l4.9 10.2c1.2 2.4 4.1 3.4 6.5 2.3l5.9-2.8c2.5-1.2 3.5-4.1 2.3-6.6zm-90.1 15.8c-4.5 0-8.2-3.7-8.2-8.2 0-4.5 3.7-8.2 8.2-8.2s8.2 3.7 8.2 8.2c0 4.6-3.7 8.2-8.2 8.2zm-11-21.7L140 66c-.3-1.9.7-3.8 2.4-4.7l49.3-23.8c1.7-.8 3.9-.4 5.2 1l17.5 19.7L144.5 92zm72.8-8c-4.5 0-8.2-3.7-8.2-8.2 0-4.5 3.7-8.2 8.2-8.2s8.2 3.7 8.2 8.2c0 4.5-3.6 8.2-8.2 8.2z"/></svg>