<svg xmlns="http://www.w3.org/2000/svg" width="800" height="800" viewBox="0 0 297.167 297.167"><path d="M280.667 189.505h-.833v-38.791c0-6.5-.165-9.833-2.051-17.459l-13.23-51.309c-1.082-4.265-5.484-7.441-9.885-7.441h-16.834V66.38c0-4.4-3.267-7.875-7.667-7.875h-17c-4.4 0-8.333 3.475-8.333 7.875v8.125h-41v-16h17.083c4.557 0 7.917-3.818 7.917-8.375v-.5c0-4.557-3.36-8.125-7.917-8.125h-156.5c-4.557 0-8.583 3.568-8.583 8.125v.5c0 4.557 4.026 8.375 8.583 8.375h24.417v16.269c-18 2.655-33 18.687-33 38.073v76.559C6.833 189.672 0 197 0 205.943c0 9.113 7.553 16.563 16.667 16.563h16.507s-.007.104-.007.188c0 18.226 14.774 32.969 33 32.969s33-14.728 33-32.953c0-.084-.006-.203-.007-.203h98.014s-.007.104-.007.188c0 18.226 14.774 32.969 33 32.969s33-14.728 33-32.953c0-.084-.006-.203-.007-.203h17.507c9.113 0 16.5-7.387 16.5-16.5 0-9.114-7.387-16.503-16.5-16.503zm-30-98 13.5 49h-50.333v-49h36.833zm-102.834-17h-17v-16h17v16zm-49.999 0v-16h17v16h-17zm-16-16v16h-17v-16h17zm-33.001 115h140v16h-140v-16zm25.583 49.125a8.25 8.25 0 1 1-16.5 0 8.25 8.25 0 1 1 16.5 0zm164.001 0a8.25 8.25 0 1 1-16.5 0 8.25 8.25 0 1 1 16.5 0z"/></svg>